<?xml version="1.0" encoding="utf-8" standalone="no"?>
<!DOCTYPE svg PUBLIC "-//W3C//DTD SVG 1.1//EN"
  "http://www.w3.org/Graphics/SVG/1.1/DTD/svg11.dtd">
<svg xmlns:xlink="http://www.w3.org/1999/xlink" width="1152pt" height="432pt" viewBox="0 0 1152 432" xmlns="http://www.w3.org/2000/svg" version="1.1">
 <metadata>
  <rdf:RDF xmlns:dc="http://purl.org/dc/elements/1.1/" xmlns:cc="http://creativecommons.org/ns#" xmlns:rdf="http://www.w3.org/1999/02/22-rdf-syntax-ns#">
   <cc:Work>
    <dc:type rdf:resource="http://purl.org/dc/dcmitype/StillImage"/>
    <dc:date>2024-08-16T00:16:13.200742</dc:date>
    <dc:format>image/svg+xml</dc:format>
    <dc:creator>
     <cc:Agent>
      <dc:title>Matplotlib v3.9.0, https://matplotlib.org/</dc:title>
     </cc:Agent>
    </dc:creator>
   </cc:Work>
  </rdf:RDF>
 </metadata>
 <defs>
  <style type="text/css">*{stroke-linejoin: round; stroke-linecap: butt}</style>
 </defs>
 <g id="figure_1">
  <g id="patch_1">
   <path d="M 0 432 
L 1152 432 
L 1152 0 
L 0 0 
z
" style="fill: #ffffff"/>
  </g>
  <g id="axes_1">
   <g id="patch_2">
    <path d="M 52.94 390.04 
L 573.75 390.04 
L 573.75 41.856 
L 52.94 41.856 
z
" style="fill: #ffffff"/>
   </g>
   <g id="matplotlib.axis_1">
    <g id="xtick_1">
     <g id="line2d_1">
      <path d="M 76.613182 390.04 
L 76.613182 41.856 
" clip-path="url(#p66fc5c8a89)" style="fill: none; stroke: #b0b0b0; stroke-width: 0.8; stroke-linecap: square"/>
     </g>
     <g id="line2d_2">
      <defs>
       <path id="m7a950ebe7d" d="M 0 0 
L 0 3.5 
" style="stroke: #000000; stroke-width: 0.8"/>
      </defs>
      <g>
       <use xlink:href="#m7a950ebe7d" x="76.613182" y="390.04" style="stroke: #000000; stroke-width: 0.8"/>
      </g>
     </g>
     <g id="text_1">
      <!-- 0 -->
      <g transform="translate(73.431932 404.638438) scale(0.1 -0.1)">
       <defs>
        <path id="DejaVuSans-30" d="M 2034 4250 
Q 1547 4250 1301 3770 
Q 1056 3291 1056 2328 
Q 1056 1369 1301 889 
Q 1547 409 2034 409 
Q 2525 409 2770 889 
Q 3016 1369 3016 2328 
Q 3016 3291 2770 3770 
Q 2525 4250 2034 4250 
z
M 2034 4750 
Q 2819 4750 3233 4129 
Q 3647 3509 3647 2328 
Q 3647 1150 3233 529 
Q 2819 -91 2034 -91 
Q 1250 -91 836 529 
Q 422 1150 422 2328 
Q 422 3509 836 4129 
Q 1250 4750 2034 4750 
z
" transform="scale(0.015625)"/>
       </defs>
       <use xlink:href="#DejaVuSans-30"/>
      </g>
     </g>
    </g>
    <g id="xtick_2">
     <g id="line2d_3">
      <path d="M 136.093538 390.04 
L 136.093538 41.856 
" clip-path="url(#p66fc5c8a89)" style="fill: none; stroke: #b0b0b0; stroke-width: 0.8; stroke-linecap: square"/>
     </g>
     <g id="line2d_4">
      <g>
       <use xlink:href="#m7a950ebe7d" x="136.093538" y="390.04" style="stroke: #000000; stroke-width: 0.8"/>
      </g>
     </g>
     <g id="text_2">
      <!-- 25 -->
      <g transform="translate(129.731038 404.638438) scale(0.1 -0.1)">
       <defs>
        <path id="DejaVuSans-32" d="M 1228 531 
L 3431 531 
L 3431 0 
L 469 0 
L 469 531 
Q 828 903 1448 1529 
Q 2069 2156 2228 2338 
Q 2531 2678 2651 2914 
Q 2772 3150 2772 3378 
Q 2772 3750 2511 3984 
Q 2250 4219 1831 4219 
Q 1534 4219 1204 4116 
Q 875 4013 500 3803 
L 500 4441 
Q 881 4594 1212 4672 
Q 1544 4750 1819 4750 
Q 2544 4750 2975 4387 
Q 3406 4025 3406 3419 
Q 3406 3131 3298 2873 
Q 3191 2616 2906 2266 
Q 2828 2175 2409 1742 
Q 1991 1309 1228 531 
z
" transform="scale(0.015625)"/>
        <path id="DejaVuSans-35" d="M 691 4666 
L 3169 4666 
L 3169 4134 
L 1269 4134 
L 1269 2991 
Q 1406 3038 1543 3061 
Q 1681 3084 1819 3084 
Q 2600 3084 3056 2656 
Q 3513 2228 3513 1497 
Q 3513 744 3044 326 
Q 2575 -91 1722 -91 
Q 1428 -91 1123 -41 
Q 819 9 494 109 
L 494 744 
Q 775 591 1075 516 
Q 1375 441 1709 441 
Q 2250 441 2565 725 
Q 2881 1009 2881 1497 
Q 2881 1984 2565 2268 
Q 2250 2553 1709 2553 
Q 1456 2553 1204 2497 
Q 953 2441 691 2322 
L 691 4666 
z
" transform="scale(0.015625)"/>
       </defs>
       <use xlink:href="#DejaVuSans-32"/>
       <use xlink:href="#DejaVuSans-35" x="63.623047"/>
      </g>
     </g>
    </g>
    <g id="xtick_3">
     <g id="line2d_5">
      <path d="M 195.573894 390.04 
L 195.573894 41.856 
" clip-path="url(#p66fc5c8a89)" style="fill: none; stroke: #b0b0b0; stroke-width: 0.8; stroke-linecap: square"/>
     </g>
     <g id="line2d_6">
      <g>
       <use xlink:href="#m7a950ebe7d" x="195.573894" y="390.04" style="stroke: #000000; stroke-width: 0.8"/>
      </g>
     </g>
     <g id="text_3">
      <!-- 50 -->
      <g transform="translate(189.211394 404.638438) scale(0.1 -0.1)">
       <use xlink:href="#DejaVuSans-35"/>
       <use xlink:href="#DejaVuSans-30" x="63.623047"/>
      </g>
     </g>
    </g>
    <g id="xtick_4">
     <g id="line2d_7">
      <path d="M 255.054251 390.04 
L 255.054251 41.856 
" clip-path="url(#p66fc5c8a89)" style="fill: none; stroke: #b0b0b0; stroke-width: 0.8; stroke-linecap: square"/>
     </g>
     <g id="line2d_8">
      <g>
       <use xlink:href="#m7a950ebe7d" x="255.054251" y="390.04" style="stroke: #000000; stroke-width: 0.8"/>
      </g>
     </g>
     <g id="text_4">
      <!-- 75 -->
      <g transform="translate(248.691751 404.638438) scale(0.1 -0.1)">
       <defs>
        <path id="DejaVuSans-37" d="M 525 4666 
L 3525 4666 
L 3525 4397 
L 1831 0 
L 1172 0 
L 2766 4134 
L 525 4134 
L 525 4666 
z
" transform="scale(0.015625)"/>
       </defs>
       <use xlink:href="#DejaVuSans-37"/>
       <use xlink:href="#DejaVuSans-35" x="63.623047"/>
      </g>
     </g>
    </g>
    <g id="xtick_5">
     <g id="line2d_9">
      <path d="M 314.534607 390.04 
L 314.534607 41.856 
" clip-path="url(#p66fc5c8a89)" style="fill: none; stroke: #b0b0b0; stroke-width: 0.8; stroke-linecap: square"/>
     </g>
     <g id="line2d_10">
      <g>
       <use xlink:href="#m7a950ebe7d" x="314.534607" y="390.04" style="stroke: #000000; stroke-width: 0.8"/>
      </g>
     </g>
     <g id="text_5">
      <!-- 100 -->
      <g transform="translate(304.990857 404.638438) scale(0.1 -0.1)">
       <defs>
        <path id="DejaVuSans-31" d="M 794 531 
L 1825 531 
L 1825 4091 
L 703 3866 
L 703 4441 
L 1819 4666 
L 2450 4666 
L 2450 531 
L 3481 531 
L 3481 0 
L 794 0 
L 794 531 
z
" transform="scale(0.015625)"/>
       </defs>
       <use xlink:href="#DejaVuSans-31"/>
       <use xlink:href="#DejaVuSans-30" x="63.623047"/>
       <use xlink:href="#DejaVuSans-30" x="127.246094"/>
      </g>
     </g>
    </g>
    <g id="xtick_6">
     <g id="line2d_11">
      <path d="M 374.014963 390.04 
L 374.014963 41.856 
" clip-path="url(#p66fc5c8a89)" style="fill: none; stroke: #b0b0b0; stroke-width: 0.8; stroke-linecap: square"/>
     </g>
     <g id="line2d_12">
      <g>
       <use xlink:href="#m7a950ebe7d" x="374.014963" y="390.04" style="stroke: #000000; stroke-width: 0.8"/>
      </g>
     </g>
     <g id="text_6">
      <!-- 125 -->
      <g transform="translate(364.471213 404.638438) scale(0.1 -0.1)">
       <use xlink:href="#DejaVuSans-31"/>
       <use xlink:href="#DejaVuSans-32" x="63.623047"/>
       <use xlink:href="#DejaVuSans-35" x="127.246094"/>
      </g>
     </g>
    </g>
    <g id="xtick_7">
     <g id="line2d_13">
      <path d="M 433.49532 390.04 
L 433.49532 41.856 
" clip-path="url(#p66fc5c8a89)" style="fill: none; stroke: #b0b0b0; stroke-width: 0.8; stroke-linecap: square"/>
     </g>
     <g id="line2d_14">
      <g>
       <use xlink:href="#m7a950ebe7d" x="433.49532" y="390.04" style="stroke: #000000; stroke-width: 0.8"/>
      </g>
     </g>
     <g id="text_7">
      <!-- 150 -->
      <g transform="translate(423.95157 404.638438) scale(0.1 -0.1)">
       <use xlink:href="#DejaVuSans-31"/>
       <use xlink:href="#DejaVuSans-35" x="63.623047"/>
       <use xlink:href="#DejaVuSans-30" x="127.246094"/>
      </g>
     </g>
    </g>
    <g id="xtick_8">
     <g id="line2d_15">
      <path d="M 492.975676 390.04 
L 492.975676 41.856 
" clip-path="url(#p66fc5c8a89)" style="fill: none; stroke: #b0b0b0; stroke-width: 0.8; stroke-linecap: square"/>
     </g>
     <g id="line2d_16">
      <g>
       <use xlink:href="#m7a950ebe7d" x="492.975676" y="390.04" style="stroke: #000000; stroke-width: 0.8"/>
      </g>
     </g>
     <g id="text_8">
      <!-- 175 -->
      <g transform="translate(483.431926 404.638438) scale(0.1 -0.1)">
       <use xlink:href="#DejaVuSans-31"/>
       <use xlink:href="#DejaVuSans-37" x="63.623047"/>
       <use xlink:href="#DejaVuSans-35" x="127.246094"/>
      </g>
     </g>
    </g>
    <g id="xtick_9">
     <g id="line2d_17">
      <path d="M 552.456032 390.04 
L 552.456032 41.856 
" clip-path="url(#p66fc5c8a89)" style="fill: none; stroke: #b0b0b0; stroke-width: 0.8; stroke-linecap: square"/>
     </g>
     <g id="line2d_18">
      <g>
       <use xlink:href="#m7a950ebe7d" x="552.456032" y="390.04" style="stroke: #000000; stroke-width: 0.8"/>
      </g>
     </g>
     <g id="text_9">
      <!-- 200 -->
      <g transform="translate(542.912282 404.638438) scale(0.1 -0.1)">
       <use xlink:href="#DejaVuSans-32"/>
       <use xlink:href="#DejaVuSans-30" x="63.623047"/>
       <use xlink:href="#DejaVuSans-30" x="127.246094"/>
      </g>
     </g>
    </g>
    <g id="text_10">
     <!-- Feature Index -->
     <g transform="translate(279.099687 418.316562) scale(0.1 -0.1)">
      <defs>
       <path id="DejaVuSans-46" d="M 628 4666 
L 3309 4666 
L 3309 4134 
L 1259 4134 
L 1259 2759 
L 3109 2759 
L 3109 2228 
L 1259 2228 
L 1259 0 
L 628 0 
L 628 4666 
z
" transform="scale(0.015625)"/>
       <path id="DejaVuSans-65" d="M 3597 1894 
L 3597 1613 
L 953 1613 
Q 991 1019 1311 708 
Q 1631 397 2203 397 
Q 2534 397 2845 478 
Q 3156 559 3463 722 
L 3463 178 
Q 3153 47 2828 -22 
Q 2503 -91 2169 -91 
Q 1331 -91 842 396 
Q 353 884 353 1716 
Q 353 2575 817 3079 
Q 1281 3584 2069 3584 
Q 2775 3584 3186 3129 
Q 3597 2675 3597 1894 
z
M 3022 2063 
Q 3016 2534 2758 2815 
Q 2500 3097 2075 3097 
Q 1594 3097 1305 2825 
Q 1016 2553 972 2059 
L 3022 2063 
z
" transform="scale(0.015625)"/>
       <path id="DejaVuSans-61" d="M 2194 1759 
Q 1497 1759 1228 1600 
Q 959 1441 959 1056 
Q 959 750 1161 570 
Q 1363 391 1709 391 
Q 2188 391 2477 730 
Q 2766 1069 2766 1631 
L 2766 1759 
L 2194 1759 
z
M 3341 1997 
L 3341 0 
L 2766 0 
L 2766 531 
Q 2569 213 2275 61 
Q 1981 -91 1556 -91 
Q 1019 -91 701 211 
Q 384 513 384 1019 
Q 384 1609 779 1909 
Q 1175 2209 1959 2209 
L 2766 2209 
L 2766 2266 
Q 2766 2663 2505 2880 
Q 2244 3097 1772 3097 
Q 1472 3097 1187 3025 
Q 903 2953 641 2809 
L 641 3341 
Q 956 3463 1253 3523 
Q 1550 3584 1831 3584 
Q 2591 3584 2966 3190 
Q 3341 2797 3341 1997 
z
" transform="scale(0.015625)"/>
       <path id="DejaVuSans-74" d="M 1172 4494 
L 1172 3500 
L 2356 3500 
L 2356 3053 
L 1172 3053 
L 1172 1153 
Q 1172 725 1289 603 
Q 1406 481 1766 481 
L 2356 481 
L 2356 0 
L 1766 0 
Q 1100 0 847 248 
Q 594 497 594 1153 
L 594 3053 
L 172 3053 
L 172 3500 
L 594 3500 
L 594 4494 
L 1172 4494 
z
" transform="scale(0.015625)"/>
       <path id="DejaVuSans-75" d="M 544 1381 
L 544 3500 
L 1119 3500 
L 1119 1403 
Q 1119 906 1312 657 
Q 1506 409 1894 409 
Q 2359 409 2629 706 
Q 2900 1003 2900 1516 
L 2900 3500 
L 3475 3500 
L 3475 0 
L 2900 0 
L 2900 538 
Q 2691 219 2414 64 
Q 2138 -91 1772 -91 
Q 1169 -91 856 284 
Q 544 659 544 1381 
z
M 1991 3584 
L 1991 3584 
z
" transform="scale(0.015625)"/>
       <path id="DejaVuSans-72" d="M 2631 2963 
Q 2534 3019 2420 3045 
Q 2306 3072 2169 3072 
Q 1681 3072 1420 2755 
Q 1159 2438 1159 1844 
L 1159 0 
L 581 0 
L 581 3500 
L 1159 3500 
L 1159 2956 
Q 1341 3275 1631 3429 
Q 1922 3584 2338 3584 
Q 2397 3584 2469 3576 
Q 2541 3569 2628 3553 
L 2631 2963 
z
" transform="scale(0.015625)"/>
       <path id="DejaVuSans-20" transform="scale(0.015625)"/>
       <path id="DejaVuSans-49" d="M 628 4666 
L 1259 4666 
L 1259 0 
L 628 0 
L 628 4666 
z
" transform="scale(0.015625)"/>
       <path id="DejaVuSans-6e" d="M 3513 2113 
L 3513 0 
L 2938 0 
L 2938 2094 
Q 2938 2591 2744 2837 
Q 2550 3084 2163 3084 
Q 1697 3084 1428 2787 
Q 1159 2491 1159 1978 
L 1159 0 
L 581 0 
L 581 3500 
L 1159 3500 
L 1159 2956 
Q 1366 3272 1645 3428 
Q 1925 3584 2291 3584 
Q 2894 3584 3203 3211 
Q 3513 2838 3513 2113 
z
" transform="scale(0.015625)"/>
       <path id="DejaVuSans-64" d="M 2906 2969 
L 2906 4863 
L 3481 4863 
L 3481 0 
L 2906 0 
L 2906 525 
Q 2725 213 2448 61 
Q 2172 -91 1784 -91 
Q 1150 -91 751 415 
Q 353 922 353 1747 
Q 353 2572 751 3078 
Q 1150 3584 1784 3584 
Q 2172 3584 2448 3432 
Q 2725 3281 2906 2969 
z
M 947 1747 
Q 947 1113 1208 752 
Q 1469 391 1925 391 
Q 2381 391 2643 752 
Q 2906 1113 2906 1747 
Q 2906 2381 2643 2742 
Q 2381 3103 1925 3103 
Q 1469 3103 1208 2742 
Q 947 2381 947 1747 
z
" transform="scale(0.015625)"/>
       <path id="DejaVuSans-78" d="M 3513 3500 
L 2247 1797 
L 3578 0 
L 2900 0 
L 1881 1375 
L 863 0 
L 184 0 
L 1544 1831 
L 300 3500 
L 978 3500 
L 1906 2253 
L 2834 3500 
L 3513 3500 
z
" transform="scale(0.015625)"/>
      </defs>
      <use xlink:href="#DejaVuSans-46"/>
      <use xlink:href="#DejaVuSans-65" x="52.019531"/>
      <use xlink:href="#DejaVuSans-61" x="113.542969"/>
      <use xlink:href="#DejaVuSans-74" x="174.822266"/>
      <use xlink:href="#DejaVuSans-75" x="214.03125"/>
      <use xlink:href="#DejaVuSans-72" x="277.410156"/>
      <use xlink:href="#DejaVuSans-65" x="316.273438"/>
      <use xlink:href="#DejaVuSans-20" x="377.796875"/>
      <use xlink:href="#DejaVuSans-49" x="409.583984"/>
      <use xlink:href="#DejaVuSans-6e" x="439.076172"/>
      <use xlink:href="#DejaVuSans-64" x="502.455078"/>
      <use xlink:href="#DejaVuSans-65" x="565.931641"/>
      <use xlink:href="#DejaVuSans-78" x="625.705078"/>
     </g>
    </g>
   </g>
   <g id="matplotlib.axis_2">
    <g id="ytick_1">
     <g id="line2d_19">
      <path d="M 52.94 356.683212 
L 573.75 356.683212 
" clip-path="url(#p66fc5c8a89)" style="fill: none; stroke: #b0b0b0; stroke-width: 0.8; stroke-linecap: square"/>
     </g>
     <g id="line2d_20">
      <defs>
       <path id="mbcc2f56548" d="M 0 0 
L -3.5 0 
" style="stroke: #000000; stroke-width: 0.8"/>
      </defs>
      <g>
       <use xlink:href="#mbcc2f56548" x="52.94" y="356.683212" style="stroke: #000000; stroke-width: 0.8"/>
      </g>
     </g>
     <g id="text_11">
      <!-- −10 -->
      <g transform="translate(24.835313 360.48243) scale(0.1 -0.1)">
       <defs>
        <path id="DejaVuSans-2212" d="M 678 2272 
L 4684 2272 
L 4684 1741 
L 678 1741 
L 678 2272 
z
" transform="scale(0.015625)"/>
       </defs>
       <use xlink:href="#DejaVuSans-2212"/>
       <use xlink:href="#DejaVuSans-31" x="83.789062"/>
       <use xlink:href="#DejaVuSans-30" x="147.412109"/>
      </g>
     </g>
    </g>
    <g id="ytick_2">
     <g id="line2d_21">
      <path d="M 52.94 300.281862 
L 573.75 300.281862 
" clip-path="url(#p66fc5c8a89)" style="fill: none; stroke: #b0b0b0; stroke-width: 0.8; stroke-linecap: square"/>
     </g>
     <g id="line2d_22">
      <g>
       <use xlink:href="#mbcc2f56548" x="52.94" y="300.281862" style="stroke: #000000; stroke-width: 0.8"/>
      </g>
     </g>
     <g id="text_12">
      <!-- −8 -->
      <g transform="translate(31.197813 304.081081) scale(0.1 -0.1)">
       <defs>
        <path id="DejaVuSans-38" d="M 2034 2216 
Q 1584 2216 1326 1975 
Q 1069 1734 1069 1313 
Q 1069 891 1326 650 
Q 1584 409 2034 409 
Q 2484 409 2743 651 
Q 3003 894 3003 1313 
Q 3003 1734 2745 1975 
Q 2488 2216 2034 2216 
z
M 1403 2484 
Q 997 2584 770 2862 
Q 544 3141 544 3541 
Q 544 4100 942 4425 
Q 1341 4750 2034 4750 
Q 2731 4750 3128 4425 
Q 3525 4100 3525 3541 
Q 3525 3141 3298 2862 
Q 3072 2584 2669 2484 
Q 3125 2378 3379 2068 
Q 3634 1759 3634 1313 
Q 3634 634 3220 271 
Q 2806 -91 2034 -91 
Q 1263 -91 848 271 
Q 434 634 434 1313 
Q 434 1759 690 2068 
Q 947 2378 1403 2484 
z
M 1172 3481 
Q 1172 3119 1398 2916 
Q 1625 2713 2034 2713 
Q 2441 2713 2670 2916 
Q 2900 3119 2900 3481 
Q 2900 3844 2670 4047 
Q 2441 4250 2034 4250 
Q 1625 4250 1398 4047 
Q 1172 3844 1172 3481 
z
" transform="scale(0.015625)"/>
       </defs>
       <use xlink:href="#DejaVuSans-2212"/>
       <use xlink:href="#DejaVuSans-38" x="83.789062"/>
      </g>
     </g>
    </g>
    <g id="ytick_3">
     <g id="line2d_23">
      <path d="M 52.94 243.880513 
L 573.75 243.880513 
" clip-path="url(#p66fc5c8a89)" style="fill: none; stroke: #b0b0b0; stroke-width: 0.8; stroke-linecap: square"/>
     </g>
     <g id="line2d_24">
      <g>
       <use xlink:href="#mbcc2f56548" x="52.94" y="243.880513" style="stroke: #000000; stroke-width: 0.8"/>
      </g>
     </g>
     <g id="text_13">
      <!-- −6 -->
      <g transform="translate(31.197813 247.679732) scale(0.1 -0.1)">
       <defs>
        <path id="DejaVuSans-36" d="M 2113 2584 
Q 1688 2584 1439 2293 
Q 1191 2003 1191 1497 
Q 1191 994 1439 701 
Q 1688 409 2113 409 
Q 2538 409 2786 701 
Q 3034 994 3034 1497 
Q 3034 2003 2786 2293 
Q 2538 2584 2113 2584 
z
M 3366 4563 
L 3366 3988 
Q 3128 4100 2886 4159 
Q 2644 4219 2406 4219 
Q 1781 4219 1451 3797 
Q 1122 3375 1075 2522 
Q 1259 2794 1537 2939 
Q 1816 3084 2150 3084 
Q 2853 3084 3261 2657 
Q 3669 2231 3669 1497 
Q 3669 778 3244 343 
Q 2819 -91 2113 -91 
Q 1303 -91 875 529 
Q 447 1150 447 2328 
Q 447 3434 972 4092 
Q 1497 4750 2381 4750 
Q 2619 4750 2861 4703 
Q 3103 4656 3366 4563 
z
" transform="scale(0.015625)"/>
       </defs>
       <use xlink:href="#DejaVuSans-2212"/>
       <use xlink:href="#DejaVuSans-36" x="83.789062"/>
      </g>
     </g>
    </g>
    <g id="ytick_4">
     <g id="line2d_25">
      <path d="M 52.94 187.479163 
L 573.75 187.479163 
" clip-path="url(#p66fc5c8a89)" style="fill: none; stroke: #b0b0b0; stroke-width: 0.8; stroke-linecap: square"/>
     </g>
     <g id="line2d_26">
      <g>
       <use xlink:href="#mbcc2f56548" x="52.94" y="187.479163" style="stroke: #000000; stroke-width: 0.8"/>
      </g>
     </g>
     <g id="text_14">
      <!-- −4 -->
      <g transform="translate(31.197813 191.278382) scale(0.1 -0.1)">
       <defs>
        <path id="DejaVuSans-34" d="M 2419 4116 
L 825 1625 
L 2419 1625 
L 2419 4116 
z
M 2253 4666 
L 3047 4666 
L 3047 1625 
L 3713 1625 
L 3713 1100 
L 3047 1100 
L 3047 0 
L 2419 0 
L 2419 1100 
L 313 1100 
L 313 1709 
L 2253 4666 
z
" transform="scale(0.015625)"/>
       </defs>
       <use xlink:href="#DejaVuSans-2212"/>
       <use xlink:href="#DejaVuSans-34" x="83.789062"/>
      </g>
     </g>
    </g>
    <g id="ytick_5">
     <g id="line2d_27">
      <path d="M 52.94 131.077814 
L 573.75 131.077814 
" clip-path="url(#p66fc5c8a89)" style="fill: none; stroke: #b0b0b0; stroke-width: 0.8; stroke-linecap: square"/>
     </g>
     <g id="line2d_28">
      <g>
       <use xlink:href="#mbcc2f56548" x="52.94" y="131.077814" style="stroke: #000000; stroke-width: 0.8"/>
      </g>
     </g>
     <g id="text_15">
      <!-- −2 -->
      <g transform="translate(31.197813 134.877033) scale(0.1 -0.1)">
       <use xlink:href="#DejaVuSans-2212"/>
       <use xlink:href="#DejaVuSans-32" x="83.789062"/>
      </g>
     </g>
    </g>
    <g id="ytick_6">
     <g id="line2d_29">
      <path d="M 52.94 74.676465 
L 573.75 74.676465 
" clip-path="url(#p66fc5c8a89)" style="fill: none; stroke: #b0b0b0; stroke-width: 0.8; stroke-linecap: square"/>
     </g>
     <g id="line2d_30">
      <g>
       <use xlink:href="#mbcc2f56548" x="52.94" y="74.676465" style="stroke: #000000; stroke-width: 0.8"/>
      </g>
     </g>
     <g id="text_16">
      <!-- 0 -->
      <g transform="translate(39.5775 78.475683) scale(0.1 -0.1)">
       <use xlink:href="#DejaVuSans-30"/>
      </g>
     </g>
    </g>
    <g id="text_17">
     <!-- Standardized Position -->
     <g transform="translate(18.755625 270.012844) rotate(-90) scale(0.1 -0.1)">
      <defs>
       <path id="DejaVuSans-53" d="M 3425 4513 
L 3425 3897 
Q 3066 4069 2747 4153 
Q 2428 4238 2131 4238 
Q 1616 4238 1336 4038 
Q 1056 3838 1056 3469 
Q 1056 3159 1242 3001 
Q 1428 2844 1947 2747 
L 2328 2669 
Q 3034 2534 3370 2195 
Q 3706 1856 3706 1288 
Q 3706 609 3251 259 
Q 2797 -91 1919 -91 
Q 1588 -91 1214 -16 
Q 841 59 441 206 
L 441 856 
Q 825 641 1194 531 
Q 1563 422 1919 422 
Q 2459 422 2753 634 
Q 3047 847 3047 1241 
Q 3047 1584 2836 1778 
Q 2625 1972 2144 2069 
L 1759 2144 
Q 1053 2284 737 2584 
Q 422 2884 422 3419 
Q 422 4038 858 4394 
Q 1294 4750 2059 4750 
Q 2388 4750 2728 4690 
Q 3069 4631 3425 4513 
z
" transform="scale(0.015625)"/>
       <path id="DejaVuSans-69" d="M 603 3500 
L 1178 3500 
L 1178 0 
L 603 0 
L 603 3500 
z
M 603 4863 
L 1178 4863 
L 1178 4134 
L 603 4134 
L 603 4863 
z
" transform="scale(0.015625)"/>
       <path id="DejaVuSans-7a" d="M 353 3500 
L 3084 3500 
L 3084 2975 
L 922 459 
L 3084 459 
L 3084 0 
L 275 0 
L 275 525 
L 2438 3041 
L 353 3041 
L 353 3500 
z
" transform="scale(0.015625)"/>
       <path id="DejaVuSans-50" d="M 1259 4147 
L 1259 2394 
L 2053 2394 
Q 2494 2394 2734 2622 
Q 2975 2850 2975 3272 
Q 2975 3691 2734 3919 
Q 2494 4147 2053 4147 
L 1259 4147 
z
M 628 4666 
L 2053 4666 
Q 2838 4666 3239 4311 
Q 3641 3956 3641 3272 
Q 3641 2581 3239 2228 
Q 2838 1875 2053 1875 
L 1259 1875 
L 1259 0 
L 628 0 
L 628 4666 
z
" transform="scale(0.015625)"/>
       <path id="DejaVuSans-6f" d="M 1959 3097 
Q 1497 3097 1228 2736 
Q 959 2375 959 1747 
Q 959 1119 1226 758 
Q 1494 397 1959 397 
Q 2419 397 2687 759 
Q 2956 1122 2956 1747 
Q 2956 2369 2687 2733 
Q 2419 3097 1959 3097 
z
M 1959 3584 
Q 2709 3584 3137 3096 
Q 3566 2609 3566 1747 
Q 3566 888 3137 398 
Q 2709 -91 1959 -91 
Q 1206 -91 779 398 
Q 353 888 353 1747 
Q 353 2609 779 3096 
Q 1206 3584 1959 3584 
z
" transform="scale(0.015625)"/>
       <path id="DejaVuSans-73" d="M 2834 3397 
L 2834 2853 
Q 2591 2978 2328 3040 
Q 2066 3103 1784 3103 
Q 1356 3103 1142 2972 
Q 928 2841 928 2578 
Q 928 2378 1081 2264 
Q 1234 2150 1697 2047 
L 1894 2003 
Q 2506 1872 2764 1633 
Q 3022 1394 3022 966 
Q 3022 478 2636 193 
Q 2250 -91 1575 -91 
Q 1294 -91 989 -36 
Q 684 19 347 128 
L 347 722 
Q 666 556 975 473 
Q 1284 391 1588 391 
Q 1994 391 2212 530 
Q 2431 669 2431 922 
Q 2431 1156 2273 1281 
Q 2116 1406 1581 1522 
L 1381 1569 
Q 847 1681 609 1914 
Q 372 2147 372 2553 
Q 372 3047 722 3315 
Q 1072 3584 1716 3584 
Q 2034 3584 2315 3537 
Q 2597 3491 2834 3397 
z
" transform="scale(0.015625)"/>
      </defs>
      <use xlink:href="#DejaVuSans-53"/>
      <use xlink:href="#DejaVuSans-74" x="63.476562"/>
      <use xlink:href="#DejaVuSans-61" x="102.685547"/>
      <use xlink:href="#DejaVuSans-6e" x="163.964844"/>
      <use xlink:href="#DejaVuSans-64" x="227.34375"/>
      <use xlink:href="#DejaVuSans-61" x="290.820312"/>
      <use xlink:href="#DejaVuSans-72" x="352.099609"/>
      <use xlink:href="#DejaVuSans-64" x="391.462891"/>
      <use xlink:href="#DejaVuSans-69" x="454.939453"/>
      <use xlink:href="#DejaVuSans-7a" x="482.722656"/>
      <use xlink:href="#DejaVuSans-65" x="535.212891"/>
      <use xlink:href="#DejaVuSans-64" x="596.736328"/>
      <use xlink:href="#DejaVuSans-20" x="660.212891"/>
      <use xlink:href="#DejaVuSans-50" x="692"/>
      <use xlink:href="#DejaVuSans-6f" x="748.677734"/>
      <use xlink:href="#DejaVuSans-73" x="809.859375"/>
      <use xlink:href="#DejaVuSans-69" x="861.958984"/>
      <use xlink:href="#DejaVuSans-74" x="889.742188"/>
      <use xlink:href="#DejaVuSans-69" x="928.951172"/>
      <use xlink:href="#DejaVuSans-6f" x="956.734375"/>
      <use xlink:href="#DejaVuSans-6e" x="1017.916016"/>
     </g>
    </g>
   </g>
   <g id="line2d_31">
    <path d="M 76.613182 78.519698 
L 78.992396 63.511021 
L 81.37161 159.329749 
L 83.750825 57.682545 
L 86.130039 84.733681 
L 88.509253 172.884019 
L 90.888467 128.412764 
L 93.267682 161.621107 
L 95.646896 147.412056 
L 98.02611 140.951308 
L 100.405324 110.257133 
L 102.784539 138.803567 
L 105.163753 157.78183 
L 107.542967 157.324957 
L 109.922181 129.933312 
L 112.301396 198.560096 
L 114.68061 153.248803 
L 117.059824 177.618168 
L 119.439038 193.205893 
L 121.818253 183.569216 
L 124.197467 191.703552 
L 126.576681 229.340522 
L 128.955895 180.412717 
L 131.33511 249.050867 
L 133.714324 237.113312 
L 136.093538 222.112743 
L 138.472752 220.610645 
L 140.851967 269.519012 
L 143.231181 304.567113 
L 145.610395 246.106645 
L 147.989609 311.44895 
L 150.368824 299.951601 
L 152.748038 282.888027 
L 155.127252 310.341014 
L 157.506466 340.816648 
L 159.885681 319.853998 
L 162.264895 347.817896 
L 164.644109 339.148531 
L 167.023323 346.600339 
L 169.402538 373.31836 
L 171.781752 310.044936 
L 174.160966 343.917314 
L 176.54018 357.423342 
L 178.919395 307.609338 
L 181.298609 342.371109 
L 183.677823 283.816498 
L 186.057037 299.944729 
L 188.436252 332.668064 
L 190.815466 233.570666 
L 193.19468 344.870392 
L 195.573894 336.44504 
L 197.953109 286.887405 
L 200.332323 323.639795 
L 202.711537 283.684339 
L 205.090751 315.520096 
L 207.469966 299.440341 
L 209.84918 308.211984 
L 212.228394 297.943864 
L 214.607608 314.568308 
L 216.986823 238.247524 
L 219.366037 303.74353 
L 221.745251 295.303829 
L 224.124466 303.814746 
L 226.50368 340.903785 
L 228.882894 333.885997 
L 231.262108 352.577077 
L 233.641323 287.659217 
L 236.020537 358.959891 
L 238.399751 295.992416 
L 240.778965 374.213455 
L 243.15818 320.004552 
L 245.537394 304.025194 
L 247.916608 294.664068 
L 250.295822 345.611544 
L 252.675037 300.48997 
L 255.054251 300.657199 
L 257.433465 316.099102 
L 259.812679 278.700672 
L 262.191894 272.417944 
L 264.571108 306.3878 
L 266.950322 282.323046 
L 269.329536 304.906545 
L 271.708751 274.62802 
L 274.087965 292.959295 
L 276.467179 331.965935 
L 278.846393 267.473354 
L 281.225608 315.109958 
L 283.604822 277.426892 
L 285.984036 309.508261 
L 288.36325 273.202073 
L 290.742465 279.890124 
L 293.121679 277.425682 
L 295.500893 323.563335 
L 297.880107 250.522521 
L 300.259322 281.663599 
L 302.638536 264.968073 
L 305.01775 286.192283 
L 307.396964 272.751393 
L 309.776179 228.00186 
L 312.155393 342.030305 
L 314.534607 276.458255 
L 316.913821 163.675492 
L 319.293036 192.973459 
L 321.67225 199.781875 
L 324.051464 156.929396 
L 326.430678 131.470968 
L 328.809893 263.884033 
L 331.189107 174.212642 
L 333.568321 198.683083 
L 335.947535 203.927988 
L 338.32675 155.645249 
L 340.705964 251.447522 
L 343.085178 193.190603 
L 345.464392 236.131981 
L 347.843607 139.040068 
L 350.222821 185.709636 
L 352.602035 199.232762 
L 354.981249 196.55174 
L 357.360464 173.95989 
L 359.739678 143.890158 
L 362.118892 182.803832 
L 364.498106 170.515616 
L 369.256535 91.983877 
L 371.635749 204.699517 
L 374.014963 105.836086 
L 376.394178 163.681684 
L 378.773392 95.867623 
L 381.152606 182.225108 
L 383.53182 132.099191 
L 385.911035 99.754218 
L 388.290249 117.302134 
L 390.669463 144.142635 
L 393.048677 154.975071 
L 395.427892 64.45897 
L 397.807106 122.796803 
L 400.18632 133.28672 
L 402.565534 95.644455 
L 404.944749 98.599851 
L 407.323963 104.626624 
L 409.703177 142.705513 
L 412.082392 73.134687 
L 414.461606 133.571833 
L 416.84082 110.992462 
L 419.220034 122.200705 
L 421.599249 191.266265 
L 423.978463 109.733582 
L 426.357677 170.78977 
L 428.736891 122.059846 
L 431.116106 99.340593 
L 433.49532 180.741056 
L 435.874534 136.597746 
L 438.253748 150.445244 
L 440.632963 172.420335 
L 443.012177 147.75366 
L 445.391391 176.540717 
L 447.770605 152.797127 
L 450.14982 92.512539 
L 452.529034 161.574445 
L 454.908248 171.071978 
L 457.287462 165.622697 
L 459.666677 147.814105 
L 462.045891 118.460534 
L 464.425105 180.305026 
L 466.804319 165.0685 
L 469.183534 173.147744 
L 471.562748 118.0252 
L 473.941962 118.457528 
L 476.321176 127.651065 
L 478.700391 114.327407 
L 481.079605 173.84175 
L 483.458819 149.887444 
L 485.838033 103.757146 
L 488.217248 107.805976 
L 490.596462 120.540932 
L 492.975676 139.304761 
L 495.35489 136.963152 
L 497.734105 152.706534 
L 500.113319 155.491058 
L 502.492533 93.120206 
L 504.871747 155.223413 
L 507.250962 174.650514 
L 509.630176 110.122123 
L 512.00939 144.639742 
L 514.388604 172.216813 
L 516.767819 169.185951 
L 519.147033 229.421433 
L 523.905461 165.787276 
L 526.284676 153.13145 
L 528.66389 220.600076 
L 531.043104 183.62564 
L 533.422318 222.850439 
L 535.801533 229.793394 
L 538.180747 241.569261 
L 540.559961 249.912048 
L 542.939175 356.795845 
L 545.31839 246.533874 
L 547.697604 299.831397 
L 550.076818 295.874176 
L 550.076818 295.874176 
" clip-path="url(#p66fc5c8a89)" style="fill: none; stroke: #1f77b4; stroke-width: 1.5; stroke-linecap: square"/>
   </g>
   <g id="line2d_32">
    <path d="M 76.613182 92.160579 
L 78.992396 102.840509 
L 81.37161 101.464322 
L 83.750825 107.558758 
L 86.130039 105.347535 
L 88.509253 114.197242 
L 90.888467 105.606332 
L 93.267682 129.915313 
L 95.646896 119.65364 
L 98.02611 131.262215 
L 100.405324 134.481323 
L 102.784539 137.475024 
L 105.163753 149.180528 
L 107.542967 153.958038 
L 109.922181 165.571174 
L 112.301396 171.796153 
L 114.68061 176.896454 
L 117.059824 189.899768 
L 119.439038 191.987354 
L 121.818253 193.280053 
L 124.197467 227.838114 
L 126.576681 219.080039 
L 128.955895 227.214383 
L 131.33511 236.0948 
L 133.714324 219.195805 
L 136.093538 257.42703 
L 138.472752 258.353874 
L 140.851967 249.36401 
L 143.231181 245.085833 
L 145.610395 271.870135 
L 147.989609 295.053027 
L 150.368824 285.773606 
L 152.748038 291.342036 
L 155.127252 273.97886 
L 157.506466 294.309158 
L 159.885681 294.280892 
L 162.264895 291.367047 
L 164.644109 306.307951 
L 167.023323 291.931598 
L 169.402538 293.898106 
L 171.781752 302.342984 
L 174.160966 291.823403 
L 176.54018 296.976558 
L 178.919395 290.750201 
L 181.298609 288.313003 
L 183.677823 293.610728 
L 186.057037 290.867406 
L 188.436252 305.239658 
L 190.815466 298.470319 
L 193.19468 282.862007 
L 195.573894 297.215513 
L 197.953109 282.588775 
L 200.332323 284.867552 
L 202.711537 294.358012 
L 205.090751 283.818353 
L 207.469966 280.90276 
L 209.84918 286.10649 
L 212.228394 287.099117 
L 214.607608 276.830176 
L 216.986823 300.546986 
L 219.366037 289.786606 
L 221.745251 289.444283 
L 224.124466 288.376554 
L 226.50368 313.776568 
L 228.882894 294.014276 
L 231.262108 300.594347 
L 233.641323 290.562532 
L 236.020537 289.291671 
L 238.399751 294.631136 
L 240.778965 294.753129 
L 243.15818 290.942145 
L 245.537394 303.305907 
L 247.916608 305.134447 
L 250.295822 301.25807 
L 252.675037 299.062194 
L 255.054251 305.528771 
L 257.433465 289.574558 
L 259.812679 303.666478 
L 262.191894 296.651205 
L 264.571108 285.190028 
L 266.950322 304.407522 
L 269.329536 286.990195 
L 271.708751 295.454598 
L 274.087965 294.682666 
L 276.467179 287.7337 
L 278.846393 287.660682 
L 281.225608 301.012445 
L 283.604822 280.635619 
L 285.984036 292.994621 
L 288.36325 275.371351 
L 293.121679 282.417862 
L 295.500893 276.160105 
L 297.880107 287.66399 
L 300.259322 260.377613 
L 302.638536 267.721211 
L 305.01775 270.357373 
L 307.396964 257.418854 
L 309.776179 282.205948 
L 312.155393 261.509122 
L 314.534607 186.186061 
L 316.913821 182.293123 
L 319.293036 188.966107 
L 321.67225 196.3792 
L 324.051464 180.385419 
L 326.430678 172.070481 
L 328.809893 166.069847 
L 331.189107 174.717327 
L 333.568321 180.059521 
L 335.947535 173.687202 
L 338.32675 176.146608 
L 340.705964 179.756262 
L 343.085178 180.99489 
L 345.464392 191.788337 
L 347.843607 165.632567 
L 350.222821 192.368553 
L 352.602035 184.999674 
L 354.981249 154.634334 
L 357.360464 182.830854 
L 359.739678 165.794659 
L 362.118892 174.753372 
L 364.498106 176.781111 
L 366.877321 168.114288 
L 369.256535 153.661865 
L 371.635749 137.189709 
L 374.014963 153.086092 
L 376.394178 137.199781 
L 378.773392 141.40685 
L 381.152606 140.112073 
L 383.53182 131.965015 
L 385.911035 138.947693 
L 388.290249 136.00569 
L 390.669463 144.008574 
L 393.048677 133.945973 
L 395.427892 124.960688 
L 397.807106 131.043312 
L 400.18632 121.514158 
L 402.565534 127.236258 
L 404.944749 139.391751 
L 407.323963 115.759745 
L 409.703177 134.190529 
L 412.082392 128.504084 
L 414.461606 134.826363 
L 416.84082 120.06487 
L 419.220034 134.810287 
L 421.599249 136.943627 
L 423.978463 108.611991 
L 426.357677 141.839276 
L 428.736891 120.010356 
L 431.116106 135.870042 
L 433.49532 142.701352 
L 435.874534 144.346312 
L 438.253748 132.369855 
L 440.632963 148.760581 
L 443.012177 141.561459 
L 445.391391 160.707031 
L 447.770605 137.742306 
L 450.14982 129.654469 
L 452.529034 143.604864 
L 454.908248 161.673954 
L 457.287462 162.493321 
L 459.666677 165.886388 
L 462.045891 133.022538 
L 464.425105 148.738931 
L 466.804319 170.816671 
L 469.183534 144.333672 
L 471.562748 157.835632 
L 473.941962 146.096046 
L 476.321176 126.791306 
L 478.700391 136.524937 
L 481.079605 141.12202 
L 483.458819 131.806171 
L 485.838033 127.74967 
L 488.217248 113.843946 
L 490.596462 140.100993 
L 492.975676 136.380441 
L 495.35489 129.936146 
L 497.734105 155.441068 
L 500.113319 132.501939 
L 502.492533 141.763791 
L 504.871747 135.450437 
L 507.250962 141.63449 
L 509.630176 143.871803 
L 512.00939 168.093492 
L 514.388604 167.753448 
L 516.767819 157.717297 
L 519.147033 196.919089 
L 523.905461 181.018087 
L 526.284676 186.701812 
L 528.66389 196.587483 
L 531.043104 204.184371 
L 533.422318 209.499416 
L 538.180747 229.123243 
L 540.559961 242.057997 
L 542.939175 233.851886 
L 545.31839 254.448679 
L 547.697604 268.572119 
L 550.076818 258.148267 
L 550.076818 258.148267 
" clip-path="url(#p66fc5c8a89)" style="fill: none; stroke: #ff7f0e; stroke-width: 1.5; stroke-linecap: square"/>
   </g>
   <g id="patch_3">
    <path d="M 52.94 390.04 
L 52.94 41.856 
" style="fill: none; stroke: #000000; stroke-width: 0.8; stroke-linejoin: miter; stroke-linecap: square"/>
   </g>
   <g id="patch_4">
    <path d="M 573.75 390.04 
L 573.75 41.856 
" style="fill: none; stroke: #000000; stroke-width: 0.8; stroke-linejoin: miter; stroke-linecap: square"/>
   </g>
   <g id="patch_5">
    <path d="M 52.94 390.04 
L 573.75 390.04 
" style="fill: none; stroke: #000000; stroke-width: 0.8; stroke-linejoin: miter; stroke-linecap: square"/>
   </g>
   <g id="patch_6">
    <path d="M 52.94 41.856 
L 573.75 41.856 
" style="fill: none; stroke: #000000; stroke-width: 0.8; stroke-linejoin: miter; stroke-linecap: square"/>
   </g>
   <g id="text_18">
    <!-- Original vs Reconstructed Anomaly -->
    <g transform="translate(207.888437 22.418625) scale(0.12 -0.12)">
     <defs>
      <path id="DejaVuSans-4f" d="M 2522 4238 
Q 1834 4238 1429 3725 
Q 1025 3213 1025 2328 
Q 1025 1447 1429 934 
Q 1834 422 2522 422 
Q 3209 422 3611 934 
Q 4013 1447 4013 2328 
Q 4013 3213 3611 3725 
Q 3209 4238 2522 4238 
z
M 2522 4750 
Q 3503 4750 4090 4092 
Q 4678 3434 4678 2328 
Q 4678 1225 4090 567 
Q 3503 -91 2522 -91 
Q 1538 -91 948 565 
Q 359 1222 359 2328 
Q 359 3434 948 4092 
Q 1538 4750 2522 4750 
z
" transform="scale(0.015625)"/>
      <path id="DejaVuSans-67" d="M 2906 1791 
Q 2906 2416 2648 2759 
Q 2391 3103 1925 3103 
Q 1463 3103 1205 2759 
Q 947 2416 947 1791 
Q 947 1169 1205 825 
Q 1463 481 1925 481 
Q 2391 481 2648 825 
Q 2906 1169 2906 1791 
z
M 3481 434 
Q 3481 -459 3084 -895 
Q 2688 -1331 1869 -1331 
Q 1566 -1331 1297 -1286 
Q 1028 -1241 775 -1147 
L 775 -588 
Q 1028 -725 1275 -790 
Q 1522 -856 1778 -856 
Q 2344 -856 2625 -561 
Q 2906 -266 2906 331 
L 2906 616 
Q 2728 306 2450 153 
Q 2172 0 1784 0 
Q 1141 0 747 490 
Q 353 981 353 1791 
Q 353 2603 747 3093 
Q 1141 3584 1784 3584 
Q 2172 3584 2450 3431 
Q 2728 3278 2906 2969 
L 2906 3500 
L 3481 3500 
L 3481 434 
z
" transform="scale(0.015625)"/>
      <path id="DejaVuSans-6c" d="M 603 4863 
L 1178 4863 
L 1178 0 
L 603 0 
L 603 4863 
z
" transform="scale(0.015625)"/>
      <path id="DejaVuSans-76" d="M 191 3500 
L 800 3500 
L 1894 563 
L 2988 3500 
L 3597 3500 
L 2284 0 
L 1503 0 
L 191 3500 
z
" transform="scale(0.015625)"/>
      <path id="DejaVuSans-52" d="M 2841 2188 
Q 3044 2119 3236 1894 
Q 3428 1669 3622 1275 
L 4263 0 
L 3584 0 
L 2988 1197 
Q 2756 1666 2539 1819 
Q 2322 1972 1947 1972 
L 1259 1972 
L 1259 0 
L 628 0 
L 628 4666 
L 2053 4666 
Q 2853 4666 3247 4331 
Q 3641 3997 3641 3322 
Q 3641 2881 3436 2590 
Q 3231 2300 2841 2188 
z
M 1259 4147 
L 1259 2491 
L 2053 2491 
Q 2509 2491 2742 2702 
Q 2975 2913 2975 3322 
Q 2975 3731 2742 3939 
Q 2509 4147 2053 4147 
L 1259 4147 
z
" transform="scale(0.015625)"/>
      <path id="DejaVuSans-63" d="M 3122 3366 
L 3122 2828 
Q 2878 2963 2633 3030 
Q 2388 3097 2138 3097 
Q 1578 3097 1268 2742 
Q 959 2388 959 1747 
Q 959 1106 1268 751 
Q 1578 397 2138 397 
Q 2388 397 2633 464 
Q 2878 531 3122 666 
L 3122 134 
Q 2881 22 2623 -34 
Q 2366 -91 2075 -91 
Q 1284 -91 818 406 
Q 353 903 353 1747 
Q 353 2603 823 3093 
Q 1294 3584 2113 3584 
Q 2378 3584 2631 3529 
Q 2884 3475 3122 3366 
z
" transform="scale(0.015625)"/>
      <path id="DejaVuSans-41" d="M 2188 4044 
L 1331 1722 
L 3047 1722 
L 2188 4044 
z
M 1831 4666 
L 2547 4666 
L 4325 0 
L 3669 0 
L 3244 1197 
L 1141 1197 
L 716 0 
L 50 0 
L 1831 4666 
z
" transform="scale(0.015625)"/>
      <path id="DejaVuSans-6d" d="M 3328 2828 
Q 3544 3216 3844 3400 
Q 4144 3584 4550 3584 
Q 5097 3584 5394 3201 
Q 5691 2819 5691 2113 
L 5691 0 
L 5113 0 
L 5113 2094 
Q 5113 2597 4934 2840 
Q 4756 3084 4391 3084 
Q 3944 3084 3684 2787 
Q 3425 2491 3425 1978 
L 3425 0 
L 2847 0 
L 2847 2094 
Q 2847 2600 2669 2842 
Q 2491 3084 2119 3084 
Q 1678 3084 1418 2786 
Q 1159 2488 1159 1978 
L 1159 0 
L 581 0 
L 581 3500 
L 1159 3500 
L 1159 2956 
Q 1356 3278 1631 3431 
Q 1906 3584 2284 3584 
Q 2666 3584 2933 3390 
Q 3200 3197 3328 2828 
z
" transform="scale(0.015625)"/>
      <path id="DejaVuSans-79" d="M 2059 -325 
Q 1816 -950 1584 -1140 
Q 1353 -1331 966 -1331 
L 506 -1331 
L 506 -850 
L 844 -850 
Q 1081 -850 1212 -737 
Q 1344 -625 1503 -206 
L 1606 56 
L 191 3500 
L 800 3500 
L 1894 763 
L 2988 3500 
L 3597 3500 
L 2059 -325 
z
" transform="scale(0.015625)"/>
     </defs>
     <use xlink:href="#DejaVuSans-4f"/>
     <use xlink:href="#DejaVuSans-72" x="78.710938"/>
     <use xlink:href="#DejaVuSans-69" x="119.824219"/>
     <use xlink:href="#DejaVuSans-67" x="147.607422"/>
     <use xlink:href="#DejaVuSans-69" x="211.083984"/>
     <use xlink:href="#DejaVuSans-6e" x="238.867188"/>
     <use xlink:href="#DejaVuSans-61" x="302.246094"/>
     <use xlink:href="#DejaVuSans-6c" x="363.525391"/>
     <use xlink:href="#DejaVuSans-20" x="391.308594"/>
     <use xlink:href="#DejaVuSans-76" x="423.095703"/>
     <use xlink:href="#DejaVuSans-73" x="482.275391"/>
     <use xlink:href="#DejaVuSans-20" x="534.375"/>
     <use xlink:href="#DejaVuSans-52" x="566.162109"/>
     <use xlink:href="#DejaVuSans-65" x="631.144531"/>
     <use xlink:href="#DejaVuSans-63" x="692.667969"/>
     <use xlink:href="#DejaVuSans-6f" x="747.648438"/>
     <use xlink:href="#DejaVuSans-6e" x="808.830078"/>
     <use xlink:href="#DejaVuSans-73" x="872.208984"/>
     <use xlink:href="#DejaVuSans-74" x="924.308594"/>
     <use xlink:href="#DejaVuSans-72" x="963.517578"/>
     <use xlink:href="#DejaVuSans-75" x="1004.630859"/>
     <use xlink:href="#DejaVuSans-63" x="1068.009766"/>
     <use xlink:href="#DejaVuSans-74" x="1122.990234"/>
     <use xlink:href="#DejaVuSans-65" x="1162.199219"/>
     <use xlink:href="#DejaVuSans-64" x="1223.722656"/>
     <use xlink:href="#DejaVuSans-20" x="1287.199219"/>
     <use xlink:href="#DejaVuSans-41" x="1318.986328"/>
     <use xlink:href="#DejaVuSans-6e" x="1387.394531"/>
     <use xlink:href="#DejaVuSans-6f" x="1450.773438"/>
     <use xlink:href="#DejaVuSans-6d" x="1511.955078"/>
     <use xlink:href="#DejaVuSans-61" x="1609.367188"/>
     <use xlink:href="#DejaVuSans-6c" x="1670.646484"/>
     <use xlink:href="#DejaVuSans-79" x="1698.429688"/>
    </g>
    <!-- (Error = 1.4008) -->
    <g transform="translate(264.205 35.856) scale(0.12 -0.12)">
     <defs>
      <path id="DejaVuSans-28" d="M 1984 4856 
Q 1566 4138 1362 3434 
Q 1159 2731 1159 2009 
Q 1159 1288 1364 580 
Q 1569 -128 1984 -844 
L 1484 -844 
Q 1016 -109 783 600 
Q 550 1309 550 2009 
Q 550 2706 781 3412 
Q 1013 4119 1484 4856 
L 1984 4856 
z
" transform="scale(0.015625)"/>
      <path id="DejaVuSans-45" d="M 628 4666 
L 3578 4666 
L 3578 4134 
L 1259 4134 
L 1259 2753 
L 3481 2753 
L 3481 2222 
L 1259 2222 
L 1259 531 
L 3634 531 
L 3634 0 
L 628 0 
L 628 4666 
z
" transform="scale(0.015625)"/>
      <path id="DejaVuSans-3d" d="M 678 2906 
L 4684 2906 
L 4684 2381 
L 678 2381 
L 678 2906 
z
M 678 1631 
L 4684 1631 
L 4684 1100 
L 678 1100 
L 678 1631 
z
" transform="scale(0.015625)"/>
      <path id="DejaVuSans-2e" d="M 684 794 
L 1344 794 
L 1344 0 
L 684 0 
L 684 794 
z
" transform="scale(0.015625)"/>
      <path id="DejaVuSans-29" d="M 513 4856 
L 1013 4856 
Q 1481 4119 1714 3412 
Q 1947 2706 1947 2009 
Q 1947 1309 1714 600 
Q 1481 -109 1013 -844 
L 513 -844 
Q 928 -128 1133 580 
Q 1338 1288 1338 2009 
Q 1338 2731 1133 3434 
Q 928 4138 513 4856 
z
" transform="scale(0.015625)"/>
     </defs>
     <use xlink:href="#DejaVuSans-28"/>
     <use xlink:href="#DejaVuSans-45" x="39.013672"/>
     <use xlink:href="#DejaVuSans-72" x="102.197266"/>
     <use xlink:href="#DejaVuSans-72" x="141.560547"/>
     <use xlink:href="#DejaVuSans-6f" x="180.423828"/>
     <use xlink:href="#DejaVuSans-72" x="241.605469"/>
     <use xlink:href="#DejaVuSans-20" x="282.71875"/>
     <use xlink:href="#DejaVuSans-3d" x="314.505859"/>
     <use xlink:href="#DejaVuSans-20" x="398.294922"/>
     <use xlink:href="#DejaVuSans-31" x="430.082031"/>
     <use xlink:href="#DejaVuSans-2e" x="493.705078"/>
     <use xlink:href="#DejaVuSans-34" x="525.492188"/>
     <use xlink:href="#DejaVuSans-30" x="589.115234"/>
     <use xlink:href="#DejaVuSans-30" x="652.738281"/>
     <use xlink:href="#DejaVuSans-38" x="716.361328"/>
     <use xlink:href="#DejaVuSans-29" x="779.984375"/>
    </g>
   </g>
   <g id="legend_1">
    <g id="patch_7">
     <path d="M 415.604687 79.21225 
L 566.75 79.21225 
Q 568.75 79.21225 568.75 77.21225 
L 568.75 48.856 
Q 568.75 46.856 566.75 46.856 
L 415.604687 46.856 
Q 413.604687 46.856 413.604687 48.856 
L 413.604687 77.21225 
Q 413.604687 79.21225 415.604687 79.21225 
z
" style="fill: #ffffff; opacity: 0.8; stroke: #cccccc; stroke-linejoin: miter"/>
    </g>
    <g id="line2d_33">
     <path d="M 417.604687 54.954437 
L 427.604687 54.954437 
L 437.604687 54.954437 
" style="fill: none; stroke: #1f77b4; stroke-width: 1.5; stroke-linecap: square"/>
    </g>
    <g id="text_19">
     <!-- Original Anomaly -->
     <g transform="translate(445.604687 58.454437) scale(0.1 -0.1)">
      <use xlink:href="#DejaVuSans-4f"/>
      <use xlink:href="#DejaVuSans-72" x="78.710938"/>
      <use xlink:href="#DejaVuSans-69" x="119.824219"/>
      <use xlink:href="#DejaVuSans-67" x="147.607422"/>
      <use xlink:href="#DejaVuSans-69" x="211.083984"/>
      <use xlink:href="#DejaVuSans-6e" x="238.867188"/>
      <use xlink:href="#DejaVuSans-61" x="302.246094"/>
      <use xlink:href="#DejaVuSans-6c" x="363.525391"/>
      <use xlink:href="#DejaVuSans-20" x="391.308594"/>
      <use xlink:href="#DejaVuSans-41" x="423.095703"/>
      <use xlink:href="#DejaVuSans-6e" x="491.503906"/>
      <use xlink:href="#DejaVuSans-6f" x="554.882812"/>
      <use xlink:href="#DejaVuSans-6d" x="616.064453"/>
      <use xlink:href="#DejaVuSans-61" x="713.476562"/>
      <use xlink:href="#DejaVuSans-6c" x="774.755859"/>
      <use xlink:href="#DejaVuSans-79" x="802.539062"/>
     </g>
    </g>
    <g id="line2d_34">
     <path d="M 417.604687 69.632562 
L 427.604687 69.632562 
L 437.604687 69.632562 
" style="fill: none; stroke: #ff7f0e; stroke-width: 1.5; stroke-linecap: square"/>
    </g>
    <g id="text_20">
     <!-- Reconstructed Anomaly -->
     <g transform="translate(445.604687 73.132562) scale(0.1 -0.1)">
      <use xlink:href="#DejaVuSans-52"/>
      <use xlink:href="#DejaVuSans-65" x="64.982422"/>
      <use xlink:href="#DejaVuSans-63" x="126.505859"/>
      <use xlink:href="#DejaVuSans-6f" x="181.486328"/>
      <use xlink:href="#DejaVuSans-6e" x="242.667969"/>
      <use xlink:href="#DejaVuSans-73" x="306.046875"/>
      <use xlink:href="#DejaVuSans-74" x="358.146484"/>
      <use xlink:href="#DejaVuSans-72" x="397.355469"/>
      <use xlink:href="#DejaVuSans-75" x="438.46875"/>
      <use xlink:href="#DejaVuSans-63" x="501.847656"/>
      <use xlink:href="#DejaVuSans-74" x="556.828125"/>
      <use xlink:href="#DejaVuSans-65" x="596.037109"/>
      <use xlink:href="#DejaVuSans-64" x="657.560547"/>
      <use xlink:href="#DejaVuSans-20" x="721.037109"/>
      <use xlink:href="#DejaVuSans-41" x="752.824219"/>
      <use xlink:href="#DejaVuSans-6e" x="821.232422"/>
      <use xlink:href="#DejaVuSans-6f" x="884.611328"/>
      <use xlink:href="#DejaVuSans-6d" x="945.792969"/>
      <use xlink:href="#DejaVuSans-61" x="1043.205078"/>
      <use xlink:href="#DejaVuSans-6c" x="1104.484375"/>
      <use xlink:href="#DejaVuSans-79" x="1132.267578"/>
     </g>
    </g>
   </g>
  </g>
  <g id="axes_2">
   <g id="patch_8">
    <path d="M 620.39 390.04 
L 1141.2 390.04 
L 1141.2 41.856 
L 620.39 41.856 
z
" style="fill: #ffffff"/>
   </g>
   <g id="matplotlib.axis_3">
    <g id="xtick_10">
     <g id="line2d_35">
      <path d="M 644.063182 390.04 
L 644.063182 41.856 
" clip-path="url(#p80b29c5a0f)" style="fill: none; stroke: #b0b0b0; stroke-width: 0.8; stroke-linecap: square"/>
     </g>
     <g id="line2d_36">
      <g>
       <use xlink:href="#m7a950ebe7d" x="644.063182" y="390.04" style="stroke: #000000; stroke-width: 0.8"/>
      </g>
     </g>
     <g id="text_21">
      <!-- 0 -->
      <g transform="translate(640.881932 404.638438) scale(0.1 -0.1)">
       <use xlink:href="#DejaVuSans-30"/>
      </g>
     </g>
    </g>
    <g id="xtick_11">
     <g id="line2d_37">
      <path d="M 703.543538 390.04 
L 703.543538 41.856 
" clip-path="url(#p80b29c5a0f)" style="fill: none; stroke: #b0b0b0; stroke-width: 0.8; stroke-linecap: square"/>
     </g>
     <g id="line2d_38">
      <g>
       <use xlink:href="#m7a950ebe7d" x="703.543538" y="390.04" style="stroke: #000000; stroke-width: 0.8"/>
      </g>
     </g>
     <g id="text_22">
      <!-- 25 -->
      <g transform="translate(697.181038 404.638438) scale(0.1 -0.1)">
       <use xlink:href="#DejaVuSans-32"/>
       <use xlink:href="#DejaVuSans-35" x="63.623047"/>
      </g>
     </g>
    </g>
    <g id="xtick_12">
     <g id="line2d_39">
      <path d="M 763.023894 390.04 
L 763.023894 41.856 
" clip-path="url(#p80b29c5a0f)" style="fill: none; stroke: #b0b0b0; stroke-width: 0.8; stroke-linecap: square"/>
     </g>
     <g id="line2d_40">
      <g>
       <use xlink:href="#m7a950ebe7d" x="763.023894" y="390.04" style="stroke: #000000; stroke-width: 0.8"/>
      </g>
     </g>
     <g id="text_23">
      <!-- 50 -->
      <g transform="translate(756.661394 404.638438) scale(0.1 -0.1)">
       <use xlink:href="#DejaVuSans-35"/>
       <use xlink:href="#DejaVuSans-30" x="63.623047"/>
      </g>
     </g>
    </g>
    <g id="xtick_13">
     <g id="line2d_41">
      <path d="M 822.504251 390.04 
L 822.504251 41.856 
" clip-path="url(#p80b29c5a0f)" style="fill: none; stroke: #b0b0b0; stroke-width: 0.8; stroke-linecap: square"/>
     </g>
     <g id="line2d_42">
      <g>
       <use xlink:href="#m7a950ebe7d" x="822.504251" y="390.04" style="stroke: #000000; stroke-width: 0.8"/>
      </g>
     </g>
     <g id="text_24">
      <!-- 75 -->
      <g transform="translate(816.141751 404.638438) scale(0.1 -0.1)">
       <use xlink:href="#DejaVuSans-37"/>
       <use xlink:href="#DejaVuSans-35" x="63.623047"/>
      </g>
     </g>
    </g>
    <g id="xtick_14">
     <g id="line2d_43">
      <path d="M 881.984607 390.04 
L 881.984607 41.856 
" clip-path="url(#p80b29c5a0f)" style="fill: none; stroke: #b0b0b0; stroke-width: 0.8; stroke-linecap: square"/>
     </g>
     <g id="line2d_44">
      <g>
       <use xlink:href="#m7a950ebe7d" x="881.984607" y="390.04" style="stroke: #000000; stroke-width: 0.8"/>
      </g>
     </g>
     <g id="text_25">
      <!-- 100 -->
      <g transform="translate(872.440857 404.638438) scale(0.1 -0.1)">
       <use xlink:href="#DejaVuSans-31"/>
       <use xlink:href="#DejaVuSans-30" x="63.623047"/>
       <use xlink:href="#DejaVuSans-30" x="127.246094"/>
      </g>
     </g>
    </g>
    <g id="xtick_15">
     <g id="line2d_45">
      <path d="M 941.464963 390.04 
L 941.464963 41.856 
" clip-path="url(#p80b29c5a0f)" style="fill: none; stroke: #b0b0b0; stroke-width: 0.8; stroke-linecap: square"/>
     </g>
     <g id="line2d_46">
      <g>
       <use xlink:href="#m7a950ebe7d" x="941.464963" y="390.04" style="stroke: #000000; stroke-width: 0.8"/>
      </g>
     </g>
     <g id="text_26">
      <!-- 125 -->
      <g transform="translate(931.921213 404.638438) scale(0.1 -0.1)">
       <use xlink:href="#DejaVuSans-31"/>
       <use xlink:href="#DejaVuSans-32" x="63.623047"/>
       <use xlink:href="#DejaVuSans-35" x="127.246094"/>
      </g>
     </g>
    </g>
    <g id="xtick_16">
     <g id="line2d_47">
      <path d="M 1000.94532 390.04 
L 1000.94532 41.856 
" clip-path="url(#p80b29c5a0f)" style="fill: none; stroke: #b0b0b0; stroke-width: 0.8; stroke-linecap: square"/>
     </g>
     <g id="line2d_48">
      <g>
       <use xlink:href="#m7a950ebe7d" x="1000.94532" y="390.04" style="stroke: #000000; stroke-width: 0.8"/>
      </g>
     </g>
     <g id="text_27">
      <!-- 150 -->
      <g transform="translate(991.40157 404.638438) scale(0.1 -0.1)">
       <use xlink:href="#DejaVuSans-31"/>
       <use xlink:href="#DejaVuSans-35" x="63.623047"/>
       <use xlink:href="#DejaVuSans-30" x="127.246094"/>
      </g>
     </g>
    </g>
    <g id="xtick_17">
     <g id="line2d_49">
      <path d="M 1060.425676 390.04 
L 1060.425676 41.856 
" clip-path="url(#p80b29c5a0f)" style="fill: none; stroke: #b0b0b0; stroke-width: 0.8; stroke-linecap: square"/>
     </g>
     <g id="line2d_50">
      <g>
       <use xlink:href="#m7a950ebe7d" x="1060.425676" y="390.04" style="stroke: #000000; stroke-width: 0.8"/>
      </g>
     </g>
     <g id="text_28">
      <!-- 175 -->
      <g transform="translate(1050.881926 404.638438) scale(0.1 -0.1)">
       <use xlink:href="#DejaVuSans-31"/>
       <use xlink:href="#DejaVuSans-37" x="63.623047"/>
       <use xlink:href="#DejaVuSans-35" x="127.246094"/>
      </g>
     </g>
    </g>
    <g id="xtick_18">
     <g id="line2d_51">
      <path d="M 1119.906032 390.04 
L 1119.906032 41.856 
" clip-path="url(#p80b29c5a0f)" style="fill: none; stroke: #b0b0b0; stroke-width: 0.8; stroke-linecap: square"/>
     </g>
     <g id="line2d_52">
      <g>
       <use xlink:href="#m7a950ebe7d" x="1119.906032" y="390.04" style="stroke: #000000; stroke-width: 0.8"/>
      </g>
     </g>
     <g id="text_29">
      <!-- 200 -->
      <g transform="translate(1110.362282 404.638438) scale(0.1 -0.1)">
       <use xlink:href="#DejaVuSans-32"/>
       <use xlink:href="#DejaVuSans-30" x="63.623047"/>
       <use xlink:href="#DejaVuSans-30" x="127.246094"/>
      </g>
     </g>
    </g>
    <g id="text_30">
     <!-- Feature Index -->
     <g transform="translate(846.549687 418.316562) scale(0.1 -0.1)">
      <use xlink:href="#DejaVuSans-46"/>
      <use xlink:href="#DejaVuSans-65" x="52.019531"/>
      <use xlink:href="#DejaVuSans-61" x="113.542969"/>
      <use xlink:href="#DejaVuSans-74" x="174.822266"/>
      <use xlink:href="#DejaVuSans-75" x="214.03125"/>
      <use xlink:href="#DejaVuSans-72" x="277.410156"/>
      <use xlink:href="#DejaVuSans-65" x="316.273438"/>
      <use xlink:href="#DejaVuSans-20" x="377.796875"/>
      <use xlink:href="#DejaVuSans-49" x="409.583984"/>
      <use xlink:href="#DejaVuSans-6e" x="439.076172"/>
      <use xlink:href="#DejaVuSans-64" x="502.455078"/>
      <use xlink:href="#DejaVuSans-65" x="565.931641"/>
      <use xlink:href="#DejaVuSans-78" x="625.705078"/>
     </g>
    </g>
   </g>
   <g id="matplotlib.axis_4">
    <g id="ytick_7">
     <g id="line2d_53">
      <path d="M 620.39 338.435064 
L 1141.2 338.435064 
" clip-path="url(#p80b29c5a0f)" style="fill: none; stroke: #b0b0b0; stroke-width: 0.8; stroke-linecap: square"/>
     </g>
     <g id="line2d_54">
      <g>
       <use xlink:href="#mbcc2f56548" x="620.39" y="338.435064" style="stroke: #000000; stroke-width: 0.8"/>
      </g>
     </g>
     <g id="text_31">
      <!-- −2 -->
      <g transform="translate(598.647812 342.234283) scale(0.1 -0.1)">
       <use xlink:href="#DejaVuSans-2212"/>
       <use xlink:href="#DejaVuSans-32" x="83.789062"/>
      </g>
     </g>
    </g>
    <g id="ytick_8">
     <g id="line2d_55">
      <path d="M 620.39 273.543974 
L 1141.2 273.543974 
" clip-path="url(#p80b29c5a0f)" style="fill: none; stroke: #b0b0b0; stroke-width: 0.8; stroke-linecap: square"/>
     </g>
     <g id="line2d_56">
      <g>
       <use xlink:href="#mbcc2f56548" x="620.39" y="273.543974" style="stroke: #000000; stroke-width: 0.8"/>
      </g>
     </g>
     <g id="text_32">
      <!-- −1 -->
      <g transform="translate(598.647812 277.343193) scale(0.1 -0.1)">
       <use xlink:href="#DejaVuSans-2212"/>
       <use xlink:href="#DejaVuSans-31" x="83.789062"/>
      </g>
     </g>
    </g>
    <g id="ytick_9">
     <g id="line2d_57">
      <path d="M 620.39 208.652884 
L 1141.2 208.652884 
" clip-path="url(#p80b29c5a0f)" style="fill: none; stroke: #b0b0b0; stroke-width: 0.8; stroke-linecap: square"/>
     </g>
     <g id="line2d_58">
      <g>
       <use xlink:href="#mbcc2f56548" x="620.39" y="208.652884" style="stroke: #000000; stroke-width: 0.8"/>
      </g>
     </g>
     <g id="text_33">
      <!-- 0 -->
      <g transform="translate(607.0275 212.452103) scale(0.1 -0.1)">
       <use xlink:href="#DejaVuSans-30"/>
      </g>
     </g>
    </g>
    <g id="ytick_10">
     <g id="line2d_59">
      <path d="M 620.39 143.761794 
L 1141.2 143.761794 
" clip-path="url(#p80b29c5a0f)" style="fill: none; stroke: #b0b0b0; stroke-width: 0.8; stroke-linecap: square"/>
     </g>
     <g id="line2d_60">
      <g>
       <use xlink:href="#mbcc2f56548" x="620.39" y="143.761794" style="stroke: #000000; stroke-width: 0.8"/>
      </g>
     </g>
     <g id="text_34">
      <!-- 1 -->
      <g transform="translate(607.0275 147.561013) scale(0.1 -0.1)">
       <use xlink:href="#DejaVuSans-31"/>
      </g>
     </g>
    </g>
    <g id="ytick_11">
     <g id="line2d_61">
      <path d="M 620.39 78.870705 
L 1141.2 78.870705 
" clip-path="url(#p80b29c5a0f)" style="fill: none; stroke: #b0b0b0; stroke-width: 0.8; stroke-linecap: square"/>
     </g>
     <g id="line2d_62">
      <g>
       <use xlink:href="#mbcc2f56548" x="620.39" y="78.870705" style="stroke: #000000; stroke-width: 0.8"/>
      </g>
     </g>
     <g id="text_35">
      <!-- 2 -->
      <g transform="translate(607.0275 82.669923) scale(0.1 -0.1)">
       <use xlink:href="#DejaVuSans-32"/>
      </g>
     </g>
    </g>
    <g id="text_36">
     <!-- Standardized Position -->
     <g transform="translate(592.568125 270.012844) rotate(-90) scale(0.1 -0.1)">
      <use xlink:href="#DejaVuSans-53"/>
      <use xlink:href="#DejaVuSans-74" x="63.476562"/>
      <use xlink:href="#DejaVuSans-61" x="102.685547"/>
      <use xlink:href="#DejaVuSans-6e" x="163.964844"/>
      <use xlink:href="#DejaVuSans-64" x="227.34375"/>
      <use xlink:href="#DejaVuSans-61" x="290.820312"/>
      <use xlink:href="#DejaVuSans-72" x="352.099609"/>
      <use xlink:href="#DejaVuSans-64" x="391.462891"/>
      <use xlink:href="#DejaVuSans-69" x="454.939453"/>
      <use xlink:href="#DejaVuSans-7a" x="482.722656"/>
      <use xlink:href="#DejaVuSans-65" x="535.212891"/>
      <use xlink:href="#DejaVuSans-64" x="596.736328"/>
      <use xlink:href="#DejaVuSans-20" x="660.212891"/>
      <use xlink:href="#DejaVuSans-50" x="692"/>
      <use xlink:href="#DejaVuSans-6f" x="748.677734"/>
      <use xlink:href="#DejaVuSans-73" x="809.859375"/>
      <use xlink:href="#DejaVuSans-69" x="861.958984"/>
      <use xlink:href="#DejaVuSans-74" x="889.742188"/>
      <use xlink:href="#DejaVuSans-69" x="928.951172"/>
      <use xlink:href="#DejaVuSans-6f" x="956.734375"/>
      <use xlink:href="#DejaVuSans-6e" x="1017.916016"/>
     </g>
    </g>
   </g>
   <g id="line2d_63">
    <path d="M 644.063182 266.624597 
L 646.442396 153.006859 
L 648.82161 134.708171 
L 651.200825 321.860978 
L 653.580039 206.362328 
L 655.959253 148.953777 
L 658.338467 187.986584 
L 660.717682 249.446278 
L 663.096896 245.112102 
L 665.47611 181.545322 
L 667.855324 192.884871 
L 670.234539 170.001182 
L 672.613753 187.774397 
L 674.992967 262.808174 
L 677.372181 183.703485 
L 679.751396 181.341531 
L 682.13061 251.636677 
L 684.509824 183.84739 
L 686.889038 163.667782 
L 689.268253 223.469483 
L 691.647467 191.368845 
L 696.405895 243.612537 
L 698.78511 126.624316 
L 701.164324 218.706061 
L 703.543538 154.318623 
L 705.922752 124.729955 
L 708.301967 160.471602 
L 710.681181 170.845769 
L 713.060395 211.616586 
L 715.439609 129.797591 
L 717.818824 276.356313 
L 720.198038 259.298732 
L 722.577252 325.418768 
L 724.956466 103.937372 
L 727.335681 136.044786 
L 729.714895 374.213455 
L 732.094109 174.557316 
L 734.473323 166.041198 
L 736.852538 267.155643 
L 739.231752 103.504518 
L 741.610966 146.797306 
L 743.99018 210.429921 
L 746.369395 133.014936 
L 748.748609 152.862091 
L 751.127823 284.600636 
L 753.507037 185.481935 
L 755.886252 175.410044 
L 758.265466 240.147017 
L 760.64468 141.81313 
L 763.023894 118.972147 
L 765.403109 174.790336 
L 767.782323 246.752375 
L 770.161537 152.522841 
L 772.540751 186.761743 
L 774.919966 148.918375 
L 777.29918 148.679127 
L 779.678394 209.627311 
L 782.057608 145.8654 
L 784.436823 99.44225 
L 786.816037 202.429232 
L 789.195251 140.397318 
L 791.574466 217.10668 
L 793.95368 248.536174 
L 796.332894 190.403627 
L 798.712108 63.957758 
L 801.091323 217.961814 
L 803.470537 57.682545 
L 805.849751 214.71842 
L 808.228965 127.02943 
L 810.60818 163.651085 
L 812.987394 140.792654 
L 815.366608 216.705683 
L 817.745822 258.678184 
L 820.125037 250.48798 
L 822.504251 215.078972 
L 824.883465 235.973294 
L 827.262679 224.442845 
L 829.641894 189.361319 
L 832.021108 159.681168 
L 834.400322 149.987921 
L 836.779536 298.982145 
L 839.158751 239.355636 
L 841.537965 147.150097 
L 843.917179 190.992002 
L 846.296393 148.180594 
L 851.054822 233.137414 
L 853.434036 130.97592 
L 855.81325 172.552707 
L 858.192465 136.527891 
L 860.571679 141.859953 
L 862.950893 228.628086 
L 865.330107 196.432353 
L 867.709322 158.046585 
L 870.088536 236.531727 
L 872.46775 217.291615 
L 874.846964 167.012212 
L 877.226179 243.054671 
L 879.605393 266.956536 
L 881.984607 165.278663 
L 884.363821 247.623719 
L 886.743036 68.947791 
L 889.12225 191.030937 
L 891.501464 244.2111 
L 893.880678 122.965375 
L 896.259893 186.592466 
L 898.639107 108.674086 
L 901.018321 112.167934 
L 903.397535 121.486634 
L 905.77675 203.897949 
L 908.155964 145.70651 
L 910.535178 295.078294 
L 912.914392 109.638424 
L 915.293607 147.350418 
L 917.672821 249.743635 
L 920.052035 140.495351 
L 922.431249 99.263611 
L 924.810464 133.687804 
L 927.189678 151.324454 
L 929.568892 229.761595 
L 931.948106 93.747494 
L 934.327321 110.459011 
L 936.706535 140.815242 
L 939.085749 172.939902 
L 941.464963 72.086256 
L 943.844178 202.62975 
L 946.223392 205.590072 
L 948.602606 177.368212 
L 950.98182 219.200052 
L 953.361035 256.37225 
L 955.740249 322.240232 
L 958.119463 143.520845 
L 960.498677 306.944404 
L 962.877892 280.532775 
L 965.257106 313.348809 
L 967.63632 340.586448 
L 970.015534 203.837218 
L 972.394749 108.228112 
L 974.773963 172.735604 
L 977.153177 95.475756 
L 979.532392 187.229303 
L 981.911606 186.078864 
L 984.29082 202.753719 
L 986.670034 279.693065 
L 989.049249 225.16944 
L 991.428463 139.677108 
L 993.807677 223.469595 
L 996.186891 202.618386 
L 998.566106 148.405785 
L 1000.94532 225.778558 
L 1003.324534 247.471645 
L 1005.703748 189.160748 
L 1008.082963 108.438715 
L 1010.462177 178.261673 
L 1012.841391 202.712467 
L 1015.220605 96.388575 
L 1017.59982 241.725772 
L 1019.979034 276.520447 
L 1022.358248 152.964383 
L 1024.737462 263.285566 
L 1027.116677 221.12004 
L 1029.495891 306.819118 
L 1031.875105 281.588726 
L 1034.254319 224.764902 
L 1036.633534 197.148215 
L 1039.012748 141.069876 
L 1041.391962 191.499553 
L 1043.771176 259.335352 
L 1046.150391 306.612476 
L 1048.529605 165.14725 
L 1050.908819 235.821554 
L 1053.288033 198.667915 
L 1055.667248 232.33505 
L 1058.046462 290.446924 
L 1060.425676 248.419452 
L 1062.80489 282.513589 
L 1065.184105 344.086786 
L 1067.563319 187.769818 
L 1069.942533 201.107954 
L 1072.321747 147.700301 
L 1074.700962 254.231784 
L 1077.080176 215.376701 
L 1079.45939 232.621782 
L 1081.838604 196.592289 
L 1084.217819 256.167496 
L 1086.597033 245.081183 
L 1088.976247 193.458454 
L 1091.355461 163.011163 
L 1093.734676 130.642615 
L 1096.11389 166.415146 
L 1098.493104 134.666754 
L 1100.872318 82.717807 
L 1103.251533 238.241338 
L 1105.630747 238.27543 
L 1108.009961 167.518578 
L 1110.389175 184.069795 
L 1112.76839 60.116373 
L 1115.147604 189.790351 
L 1117.526818 229.427828 
L 1117.526818 229.427828 
" clip-path="url(#p80b29c5a0f)" style="fill: none; stroke: #1f77b4; stroke-width: 1.5; stroke-linecap: square"/>
   </g>
   <g id="line2d_64">
    <path d="M 644.063182 205.81408 
L 646.442396 200.439367 
L 648.82161 215.650128 
L 651.200825 211.285166 
L 653.580039 208.477309 
L 655.959253 215.137702 
L 658.338467 188.238722 
L 660.717682 210.013719 
L 663.096896 201.435585 
L 665.47611 203.653451 
L 667.855324 213.634729 
L 670.234539 207.002167 
L 672.613753 204.977187 
L 674.992967 206.065748 
L 677.372181 205.596389 
L 679.751396 207.449853 
L 682.13061 198.908708 
L 684.509824 204.573139 
L 686.889038 206.325186 
L 689.268253 199.754443 
L 691.647467 210.643239 
L 694.026681 198.240926 
L 696.405895 213.45398 
L 698.78511 203.935333 
L 701.164324 201.047611 
L 703.543538 198.42893 
L 705.922752 205.190517 
L 708.301967 206.956154 
L 710.681181 196.468289 
L 713.060395 200.281343 
L 715.439609 205.383611 
L 717.818824 206.289781 
L 720.198038 190.977273 
L 722.577252 191.471297 
L 724.956466 190.025016 
L 727.335681 195.697108 
L 729.714895 190.958215 
L 732.094109 181.880177 
L 734.473323 186.288273 
L 736.852538 189.555557 
L 739.231752 188.201955 
L 741.610966 175.982848 
L 743.99018 178.868174 
L 746.369395 173.584569 
L 748.748609 182.84176 
L 751.127823 194.413841 
L 753.507037 178.473418 
L 755.886252 199.431912 
L 758.265466 185.208674 
L 760.64468 180.154854 
L 763.023894 183.988649 
L 765.403109 192.859164 
L 767.782323 175.446166 
L 770.161537 178.065718 
L 772.540751 178.073266 
L 777.29918 176.087352 
L 779.678394 175.813759 
L 782.057608 161.120055 
L 784.436823 169.857234 
L 786.816037 174.987416 
L 789.195251 177.299166 
L 791.574466 176.660281 
L 793.95368 181.142089 
L 796.332894 172.969108 
L 798.712108 174.162803 
L 801.091323 176.148726 
L 803.470537 185.528565 
L 805.849751 178.569628 
L 808.228965 182.866929 
L 810.60818 181.395951 
L 812.987394 174.71445 
L 815.366608 191.885371 
L 817.745822 190.279772 
L 820.125037 186.466809 
L 822.504251 191.752226 
L 824.883465 205.683879 
L 827.262679 199.023047 
L 829.641894 188.125469 
L 832.021108 204.532404 
L 834.400322 198.332669 
L 836.779536 207.825458 
L 839.158751 198.789654 
L 841.537965 197.846361 
L 843.917179 193.376133 
L 846.296393 194.426372 
L 848.675608 198.760714 
L 851.054822 194.227598 
L 853.434036 204.396817 
L 855.81325 197.9013 
L 858.192465 198.180737 
L 860.571679 192.443465 
L 862.950893 199.708385 
L 867.709322 195.469476 
L 870.088536 196.190879 
L 872.46775 196.787764 
L 874.846964 200.681782 
L 877.226179 208.183429 
L 879.605393 209.740994 
L 881.984607 195.16811 
L 884.363821 192.953513 
L 886.743036 176.161096 
L 889.12225 179.070416 
L 891.501464 165.751507 
L 893.880678 154.137323 
L 896.259893 156.478915 
L 898.639107 149.630001 
L 901.018321 170.527587 
L 903.397535 151.992607 
L 905.77675 155.444214 
L 908.155964 167.165779 
L 910.535178 153.635123 
L 912.914392 164.813354 
L 915.293607 139.705374 
L 917.672821 165.536824 
L 920.052035 171.974531 
L 922.431249 139.422467 
L 924.810464 170.79512 
L 927.189678 153.164209 
L 929.568892 174.180336 
L 931.948106 166.306762 
L 934.327321 156.479685 
L 936.706535 186.254019 
L 939.085749 153.438054 
L 941.464963 194.999784 
L 943.844178 179.832994 
L 946.223392 199.496993 
L 948.602606 211.333364 
L 950.98182 206.668738 
L 953.361035 245.354676 
L 955.740249 224.26743 
L 958.119463 233.948227 
L 960.498677 235.661266 
L 962.877892 237.156643 
L 965.257106 239.499028 
L 967.63632 228.177896 
L 970.015534 225.579235 
L 972.394749 251.522851 
L 974.773963 214.004021 
L 977.153177 207.954231 
L 979.532392 215.224151 
L 981.911606 198.915468 
L 984.29082 209.457054 
L 986.670034 221.078963 
L 989.049249 204.545186 
L 991.428463 190.946137 
L 993.807677 210.743204 
L 996.186891 184.554828 
L 998.566106 200.755656 
L 1000.94532 219.494602 
L 1003.324534 202.25104 
L 1005.703748 188.629418 
L 1008.082963 168.697947 
L 1010.462177 198.118995 
L 1012.841391 205.892247 
L 1015.220605 202.712138 
L 1017.59982 207.67729 
L 1019.979034 208.220072 
L 1022.358248 214.280631 
L 1024.737462 221.681039 
L 1027.116677 202.802159 
L 1029.495891 220.846554 
L 1034.254319 228.288317 
L 1036.633534 244.756074 
L 1039.012748 255.262571 
L 1041.391962 245.12699 
L 1043.771176 253.948308 
L 1046.150391 254.320697 
L 1048.529605 244.121432 
L 1050.908819 260.581681 
L 1053.288033 241.761697 
L 1055.667248 255.422811 
L 1058.046462 249.61983 
L 1060.425676 249.364512 
L 1062.80489 234.09957 
L 1065.184105 251.904229 
L 1067.563319 239.850033 
L 1069.942533 247.871046 
L 1072.321747 219.527536 
L 1074.700962 211.633546 
L 1077.080176 218.407651 
L 1079.45939 229.701566 
L 1081.838604 215.535942 
L 1086.597033 219.990139 
L 1088.976247 194.013809 
L 1091.355461 206.19988 
L 1093.734676 183.001038 
L 1096.11389 181.494367 
L 1098.493104 176.176896 
L 1100.872318 176.948537 
L 1103.251533 154.597686 
L 1105.630747 172.426593 
L 1108.009961 181.792993 
L 1110.389175 152.712847 
L 1112.76839 161.823316 
L 1115.147604 137.429647 
L 1117.526818 136.303411 
L 1117.526818 136.303411 
" clip-path="url(#p80b29c5a0f)" style="fill: none; stroke: #ff7f0e; stroke-width: 1.5; stroke-linecap: square"/>
   </g>
   <g id="patch_9">
    <path d="M 620.39 390.04 
L 620.39 41.856 
" style="fill: none; stroke: #000000; stroke-width: 0.8; stroke-linejoin: miter; stroke-linecap: square"/>
   </g>
   <g id="patch_10">
    <path d="M 1141.2 390.04 
L 1141.2 41.856 
" style="fill: none; stroke: #000000; stroke-width: 0.8; stroke-linejoin: miter; stroke-linecap: square"/>
   </g>
   <g id="patch_11">
    <path d="M 620.39 390.04 
L 1141.2 390.04 
" style="fill: none; stroke: #000000; stroke-width: 0.8; stroke-linejoin: miter; stroke-linecap: square"/>
   </g>
   <g id="patch_12">
    <path d="M 620.39 41.856 
L 1141.2 41.856 
" style="fill: none; stroke: #000000; stroke-width: 0.8; stroke-linejoin: miter; stroke-linecap: square"/>
   </g>
   <g id="text_37">
    <!-- Original vs Reconstructed Normal -->
    <g transform="translate(779.94625 22.418625) scale(0.12 -0.12)">
     <defs>
      <path id="DejaVuSans-4e" d="M 628 4666 
L 1478 4666 
L 3547 763 
L 3547 4666 
L 4159 4666 
L 4159 0 
L 3309 0 
L 1241 3903 
L 1241 0 
L 628 0 
L 628 4666 
z
" transform="scale(0.015625)"/>
     </defs>
     <use xlink:href="#DejaVuSans-4f"/>
     <use xlink:href="#DejaVuSans-72" x="78.710938"/>
     <use xlink:href="#DejaVuSans-69" x="119.824219"/>
     <use xlink:href="#DejaVuSans-67" x="147.607422"/>
     <use xlink:href="#DejaVuSans-69" x="211.083984"/>
     <use xlink:href="#DejaVuSans-6e" x="238.867188"/>
     <use xlink:href="#DejaVuSans-61" x="302.246094"/>
     <use xlink:href="#DejaVuSans-6c" x="363.525391"/>
     <use xlink:href="#DejaVuSans-20" x="391.308594"/>
     <use xlink:href="#DejaVuSans-76" x="423.095703"/>
     <use xlink:href="#DejaVuSans-73" x="482.275391"/>
     <use xlink:href="#DejaVuSans-20" x="534.375"/>
     <use xlink:href="#DejaVuSans-52" x="566.162109"/>
     <use xlink:href="#DejaVuSans-65" x="631.144531"/>
     <use xlink:href="#DejaVuSans-63" x="692.667969"/>
     <use xlink:href="#DejaVuSans-6f" x="747.648438"/>
     <use xlink:href="#DejaVuSans-6e" x="808.830078"/>
     <use xlink:href="#DejaVuSans-73" x="872.208984"/>
     <use xlink:href="#DejaVuSans-74" x="924.308594"/>
     <use xlink:href="#DejaVuSans-72" x="963.517578"/>
     <use xlink:href="#DejaVuSans-75" x="1004.630859"/>
     <use xlink:href="#DejaVuSans-63" x="1068.009766"/>
     <use xlink:href="#DejaVuSans-74" x="1122.990234"/>
     <use xlink:href="#DejaVuSans-65" x="1162.199219"/>
     <use xlink:href="#DejaVuSans-64" x="1223.722656"/>
     <use xlink:href="#DejaVuSans-20" x="1287.199219"/>
     <use xlink:href="#DejaVuSans-4e" x="1318.986328"/>
     <use xlink:href="#DejaVuSans-6f" x="1393.791016"/>
     <use xlink:href="#DejaVuSans-72" x="1454.972656"/>
     <use xlink:href="#DejaVuSans-6d" x="1494.335938"/>
     <use xlink:href="#DejaVuSans-61" x="1591.748047"/>
     <use xlink:href="#DejaVuSans-6c" x="1653.027344"/>
    </g>
    <!-- (Error = 0.7396) -->
    <g transform="translate(831.655 35.856) scale(0.12 -0.12)">
     <defs>
      <path id="DejaVuSans-33" d="M 2597 2516 
Q 3050 2419 3304 2112 
Q 3559 1806 3559 1356 
Q 3559 666 3084 287 
Q 2609 -91 1734 -91 
Q 1441 -91 1130 -33 
Q 819 25 488 141 
L 488 750 
Q 750 597 1062 519 
Q 1375 441 1716 441 
Q 2309 441 2620 675 
Q 2931 909 2931 1356 
Q 2931 1769 2642 2001 
Q 2353 2234 1838 2234 
L 1294 2234 
L 1294 2753 
L 1863 2753 
Q 2328 2753 2575 2939 
Q 2822 3125 2822 3475 
Q 2822 3834 2567 4026 
Q 2313 4219 1838 4219 
Q 1578 4219 1281 4162 
Q 984 4106 628 3988 
L 628 4550 
Q 988 4650 1302 4700 
Q 1616 4750 1894 4750 
Q 2613 4750 3031 4423 
Q 3450 4097 3450 3541 
Q 3450 3153 3228 2886 
Q 3006 2619 2597 2516 
z
" transform="scale(0.015625)"/>
      <path id="DejaVuSans-39" d="M 703 97 
L 703 672 
Q 941 559 1184 500 
Q 1428 441 1663 441 
Q 2288 441 2617 861 
Q 2947 1281 2994 2138 
Q 2813 1869 2534 1725 
Q 2256 1581 1919 1581 
Q 1219 1581 811 2004 
Q 403 2428 403 3163 
Q 403 3881 828 4315 
Q 1253 4750 1959 4750 
Q 2769 4750 3195 4129 
Q 3622 3509 3622 2328 
Q 3622 1225 3098 567 
Q 2575 -91 1691 -91 
Q 1453 -91 1209 -44 
Q 966 3 703 97 
z
M 1959 2075 
Q 2384 2075 2632 2365 
Q 2881 2656 2881 3163 
Q 2881 3666 2632 3958 
Q 2384 4250 1959 4250 
Q 1534 4250 1286 3958 
Q 1038 3666 1038 3163 
Q 1038 2656 1286 2365 
Q 1534 2075 1959 2075 
z
" transform="scale(0.015625)"/>
     </defs>
     <use xlink:href="#DejaVuSans-28"/>
     <use xlink:href="#DejaVuSans-45" x="39.013672"/>
     <use xlink:href="#DejaVuSans-72" x="102.197266"/>
     <use xlink:href="#DejaVuSans-72" x="141.560547"/>
     <use xlink:href="#DejaVuSans-6f" x="180.423828"/>
     <use xlink:href="#DejaVuSans-72" x="241.605469"/>
     <use xlink:href="#DejaVuSans-20" x="282.71875"/>
     <use xlink:href="#DejaVuSans-3d" x="314.505859"/>
     <use xlink:href="#DejaVuSans-20" x="398.294922"/>
     <use xlink:href="#DejaVuSans-30" x="430.082031"/>
     <use xlink:href="#DejaVuSans-2e" x="493.705078"/>
     <use xlink:href="#DejaVuSans-37" x="525.492188"/>
     <use xlink:href="#DejaVuSans-33" x="589.115234"/>
     <use xlink:href="#DejaVuSans-39" x="652.738281"/>
     <use xlink:href="#DejaVuSans-36" x="716.361328"/>
     <use xlink:href="#DejaVuSans-29" x="779.984375"/>
    </g>
   </g>
   <g id="legend_2">
    <g id="patch_13">
     <path d="M 627.39 79.21225 
L 770.855625 79.21225 
Q 772.855625 79.21225 772.855625 77.21225 
L 772.855625 48.856 
Q 772.855625 46.856 770.855625 46.856 
L 627.39 46.856 
Q 625.39 46.856 625.39 48.856 
L 625.39 77.21225 
Q 625.39 79.21225 627.39 79.21225 
z
" style="fill: #ffffff; opacity: 0.8; stroke: #cccccc; stroke-linejoin: miter"/>
    </g>
    <g id="line2d_65">
     <path d="M 629.39 54.954437 
L 639.39 54.954437 
L 649.39 54.954437 
" style="fill: none; stroke: #1f77b4; stroke-width: 1.5; stroke-linecap: square"/>
    </g>
    <g id="text_38">
     <!-- Original Normal -->
     <g transform="translate(657.39 58.454437) scale(0.1 -0.1)">
      <use xlink:href="#DejaVuSans-4f"/>
      <use xlink:href="#DejaVuSans-72" x="78.710938"/>
      <use xlink:href="#DejaVuSans-69" x="119.824219"/>
      <use xlink:href="#DejaVuSans-67" x="147.607422"/>
      <use xlink:href="#DejaVuSans-69" x="211.083984"/>
      <use xlink:href="#DejaVuSans-6e" x="238.867188"/>
      <use xlink:href="#DejaVuSans-61" x="302.246094"/>
      <use xlink:href="#DejaVuSans-6c" x="363.525391"/>
      <use xlink:href="#DejaVuSans-20" x="391.308594"/>
      <use xlink:href="#DejaVuSans-4e" x="423.095703"/>
      <use xlink:href="#DejaVuSans-6f" x="497.900391"/>
      <use xlink:href="#DejaVuSans-72" x="559.082031"/>
      <use xlink:href="#DejaVuSans-6d" x="598.445312"/>
      <use xlink:href="#DejaVuSans-61" x="695.857422"/>
      <use xlink:href="#DejaVuSans-6c" x="757.136719"/>
     </g>
    </g>
    <g id="line2d_66">
     <path d="M 629.39 69.632562 
L 639.39 69.632562 
L 649.39 69.632562 
" style="fill: none; stroke: #ff7f0e; stroke-width: 1.5; stroke-linecap: square"/>
    </g>
    <g id="text_39">
     <!-- Reconstructed Normal -->
     <g transform="translate(657.39 73.132562) scale(0.1 -0.1)">
      <use xlink:href="#DejaVuSans-52"/>
      <use xlink:href="#DejaVuSans-65" x="64.982422"/>
      <use xlink:href="#DejaVuSans-63" x="126.505859"/>
      <use xlink:href="#DejaVuSans-6f" x="181.486328"/>
      <use xlink:href="#DejaVuSans-6e" x="242.667969"/>
      <use xlink:href="#DejaVuSans-73" x="306.046875"/>
      <use xlink:href="#DejaVuSans-74" x="358.146484"/>
      <use xlink:href="#DejaVuSans-72" x="397.355469"/>
      <use xlink:href="#DejaVuSans-75" x="438.46875"/>
      <use xlink:href="#DejaVuSans-63" x="501.847656"/>
      <use xlink:href="#DejaVuSans-74" x="556.828125"/>
      <use xlink:href="#DejaVuSans-65" x="596.037109"/>
      <use xlink:href="#DejaVuSans-64" x="657.560547"/>
      <use xlink:href="#DejaVuSans-20" x="721.037109"/>
      <use xlink:href="#DejaVuSans-4e" x="752.824219"/>
      <use xlink:href="#DejaVuSans-6f" x="827.628906"/>
      <use xlink:href="#DejaVuSans-72" x="888.810547"/>
      <use xlink:href="#DejaVuSans-6d" x="928.173828"/>
      <use xlink:href="#DejaVuSans-61" x="1025.585938"/>
      <use xlink:href="#DejaVuSans-6c" x="1086.865234"/>
     </g>
    </g>
   </g>
  </g>
 </g>
 <defs>
  <clipPath id="p66fc5c8a89">
   <rect x="52.94" y="41.856" width="520.81" height="348.184"/>
  </clipPath>
  <clipPath id="p80b29c5a0f">
   <rect x="620.39" y="41.856" width="520.81" height="348.184"/>
  </clipPath>
 </defs>
</svg>
